HIERARCHY
ROOT Hips
{
  OFFSET 2.52616 93.466 -6.9379
  CHANNELS 6 Xposition Yposition Zposition Zrotation Xrotation Yrotation
  JOINT LeftUpLeg
  {
    OFFSET 8.64259 1.95398 -2.38835
    CHANNELS 6 Xposition Yposition Zposition Zrotation Xrotation Yrotation
    JOINT LeftLeg
    {
      OFFSET 43.7702 0 0
      CHANNELS 6 Xposition Yposition Zposition Zrotation Xrotation Yrotation
      JOINT LeftFoot
      {
        OFFSET 40.6238 0 0
        CHANNELS 6 Xposition Yposition Zposition Zrotation Xrotation Yrotation
        JOINT LeftToeBase
        {
          OFFSET 12.7242 0 0
          CHANNELS 6 Xposition Yposition Zposition Zrotation Xrotation Yrotation
          End Site
          {
            OFFSET 0 0 0
          }
        }
      }
    }
  }
  JOINT RightUpLeg
  {
    OFFSET -8.2249 1.95398 -2.59336
    CHANNELS 6 Xposition Yposition Zposition Zrotation Xrotation Yrotation
    JOINT RightLeg
    {
      OFFSET 43.5653 0 0
      CHANNELS 6 Xposition Yposition Zposition Zrotation Xrotation Yrotation
      JOINT RightFoot
      {
        OFFSET 40.6238 0 0
        CHANNELS 6 Xposition Yposition Zposition Zrotation Xrotation Yrotation
        JOINT RightToeBase
        {
          OFFSET 12.7242 0 0
          CHANNELS 6 Xposition Yposition Zposition Zrotation Xrotation Yrotation
          End Site
          {
            OFFSET 0 0 0
          }
        }
      }
    }
  }
  JOINT Spine
  {
    OFFSET 0.165834 0.87714 6.61349
    CHANNELS 6 Xposition Yposition Zposition Zrotation Xrotation Yrotation
    JOINT Spine1
    {
      OFFSET 7.38963 1.71661e-005 0
      CHANNELS 6 Xposition Yposition Zposition Zrotation Xrotation Yrotation
      JOINT Spine2
      {
        OFFSET 11.9445 1.14441e-005 0
        CHANNELS 6 Xposition Yposition Zposition Zrotation Xrotation Yrotation
        JOINT Spine3
        {
          OFFSET 14.7254 4.19617e-005 0
          CHANNELS 6 Xposition Yposition Zposition Zrotation Xrotation Yrotation
          JOINT Spine4
          {
            OFFSET 10.9679 0 0
            CHANNELS 6 Xposition Yposition Zposition Zrotation Xrotation Yrotation
            JOINT RightShoulder
            {
              OFFSET 2.46616 -1.6653 3.69651
              CHANNELS 6 Xposition Yposition Zposition Zrotation Xrotation Yrotation
              JOINT RightArm
              {
                OFFSET 13.0012 0 0
                CHANNELS 6 Xposition Yposition Zposition Zrotation Xrotation Yrotation
                JOINT RightForeArm
                {
                  OFFSET 28.7848 1.52588e-005 0
                  CHANNELS 6 Xposition Yposition Zposition Zrotation Xrotation Yrotation
                  JOINT RightHand
                  {
                    OFFSET 26.5688 1.52588e-005 0
                    CHANNELS 6 Xposition Yposition Zposition Zrotation Xrotation Yrotation
                    JOINT RightHandMiddle1
                    {
                      OFFSET 8.03675 -0.886582 0.727868
                      CHANNELS 6 Xposition Yposition Zposition Zrotation Xrotation Yrotation
                      JOINT RightHandMiddle2
                      {
                        OFFSET 2.78833 0 0
                        CHANNELS 6 Xposition Yposition Zposition Zrotation Xrotation Yrotation
                        JOINT RightHandMiddle3
                        {
                          OFFSET 2.41155 0 0
                          CHANNELS 6 Xposition Yposition Zposition Zrotation Xrotation Yrotation
                          End Site
                          {
                            OFFSET 0 0 0
                          }
                        }
                      }
                    }
                    JOINT RightHandRing1
                    {
                      OFFSET 7.97966 -0.886765 -1.00486
                      CHANNELS 6 Xposition Yposition Zposition Zrotation Xrotation Yrotation
                      JOINT RightHandRing2
                      {
                        OFFSET 2.86368 0 0
                        CHANNELS 6 Xposition Yposition Zposition Zrotation Xrotation Yrotation
                        JOINT RightHandRing3
                        {
                          OFFSET 2.11079 0 0
                          CHANNELS 6 Xposition Yposition Zposition Zrotation Xrotation Yrotation
                          End Site
                          {
                            OFFSET 0 0 0
                          }
                        }
                      }
                    }
                    JOINT RightHandPinky1
                    {
                      OFFSET 8.03707 -0.887528 -2.60696
                      CHANNELS 6 Xposition Yposition Zposition Zrotation Xrotation Yrotation
                      JOINT RightHandPinky2
                      {
                        OFFSET 1.84627 0 0
                        CHANNELS 6 Xposition Yposition Zposition Zrotation Xrotation Yrotation
                        JOINT RightHandPinky3
                        {
                          OFFSET 1.88434 0 0
                          CHANNELS 6 Xposition Yposition Zposition Zrotation Xrotation Yrotation
                          End Site
                          {
                            OFFSET 0 0 0
                          }
                        }
                      }
                    }
                    JOINT RightHandIndex1
                    {
                      OFFSET 7.92262 -0.885498 2.31175
                      CHANNELS 6 Xposition Yposition Zposition Zrotation Xrotation Yrotation
                      JOINT RightHandIndex2
                      {
                        OFFSET 2.63761 0 0
                        CHANNELS 6 Xposition Yposition Zposition Zrotation Xrotation Yrotation
                        JOINT RightHandIndex3
                        {
                          OFFSET 2.16656 0 0
                          CHANNELS 6 Xposition Yposition Zposition Zrotation Xrotation Yrotation
                          End Site
                          {
                            OFFSET 0 0 0
                          }
                        }
                      }
                    }
                    JOINT RightHandThumb1
                    {
                      OFFSET 3.4769 0.0597992 2.88789
                      CHANNELS 6 Xposition Yposition Zposition Zrotation Xrotation Yrotation
                      JOINT RightHandThumb2
                      {
                        OFFSET 2.77686 9.72748e-005 -1.52588e-005
                        CHANNELS 6 Xposition Yposition Zposition Zrotation Xrotation Yrotation
                        JOINT RightHandThumb3
                        {
                          OFFSET 2.42058 -9.15528e-005 0
                          CHANNELS 6 Xposition Yposition Zposition Zrotation Xrotation Yrotation
                          End Site
                          {
                            OFFSET 0 0 0
                          }
                        }
                      }
                    }
                  }
                }
              }
            }
            JOINT LeftShoulder
            {
              OFFSET 2.38034 -1.29275 -3.7523
              CHANNELS 6 Xposition Yposition Zposition Zrotation Xrotation Yrotation
              JOINT LeftArm
              {
                OFFSET 16.3182 6.10351e-005 0
                CHANNELS 6 Xposition Yposition Zposition Zrotation Xrotation Yrotation
                JOINT LeftForeArm
                {
                  OFFSET 27.0901 0 0
                  CHANNELS 6 Xposition Yposition Zposition Zrotation Xrotation Yrotation
                  JOINT LeftHand
                  {
                    OFFSET 24.5451 1.52588e-005 0
                    CHANNELS 6 Xposition Yposition Zposition Zrotation Xrotation Yrotation
                    JOINT LeftHandMiddle1
                    {
                      OFFSET 9.21802 0.665817 0.545532
                      CHANNELS 6 Xposition Yposition Zposition Zrotation Xrotation Yrotation
                      JOINT LeftHandMiddle2
                      {
                        OFFSET 2.66255 0 0
                        CHANNELS 6 Xposition Yposition Zposition Zrotation Xrotation Yrotation
                        JOINT LeftHandMiddle3
                        {
                          OFFSET 2.2804 0 0
                          CHANNELS 6 Xposition Yposition Zposition Zrotation Xrotation Yrotation
                          End Site
                          {
                            OFFSET 0 0 0
                          }
                        }
                      }
                    }
                    JOINT LeftHandRing1
                    {
                      OFFSET 9.24775 0.665192 -1.1267
                      CHANNELS 6 Xposition Yposition Zposition Zrotation Xrotation Yrotation
                      JOINT LeftHandRing2
                      {
                        OFFSET 2.47041 0 -1.52588e-005
                        CHANNELS 6 Xposition Yposition Zposition Zrotation Xrotation Yrotation
                        JOINT LeftHandRing3
                        {
                          OFFSET 2.2054 0 0
                          CHANNELS 6 Xposition Yposition Zposition Zrotation Xrotation Yrotation
                          End Site
                          {
                            OFFSET 0 0 0
                          }
                        }
                      }
                    }
                    JOINT LeftHandPinky1
                    {
                      OFFSET 9.35384 0.66301 -2.72332
                      CHANNELS 6 Xposition Yposition Zposition Zrotation Xrotation Yrotation
                      JOINT LeftHandPinky2
                      {
                        OFFSET 1.63407 0 0
                        CHANNELS 6 Xposition Yposition Zposition Zrotation Xrotation Yrotation
                        JOINT LeftHandPinky3
                        {
                          OFFSET 1.71176 0 0
                          CHANNELS 6 Xposition Yposition Zposition Zrotation Xrotation Yrotation
                          End Site
                          {
                            OFFSET 0 0 0
                          }
                        }
                      }
                    }
                    JOINT LeftHandIndex1
                    {
                      OFFSET 8.73161 0.675903 2.06801
                      CHANNELS 6 Xposition Yposition Zposition Zrotation Xrotation Yrotation
                      JOINT LeftHandIndex2
                      {
                        OFFSET 2.66689 0 0
                        CHANNELS 6 Xposition Yposition Zposition Zrotation Xrotation Yrotation
                        JOINT LeftHandIndex3
                        {
                          OFFSET 2.12946 0 1.52588e-005
                          CHANNELS 6 Xposition Yposition Zposition Zrotation Xrotation Yrotation
                          End Site
                          {
                            OFFSET 0 0 0
                          }
                        }
                      }
                    }
                    JOINT LeftHandThumb1
                    {
                      OFFSET 4.96735 -0.62265 3.39586
                      CHANNELS 6 Xposition Yposition Zposition Zrotation Xrotation Yrotation
                      JOINT LeftHandThumb2
                      {
                        OFFSET 2.15386 1.52588e-005 0
                        CHANNELS 6 Xposition Yposition Zposition Zrotation Xrotation Yrotation
                        JOINT LeftHandThumb3
                        {
                          OFFSET 2.19511 -3.43323e-005 1.52588e-005
                          CHANNELS 6 Xposition Yposition Zposition Zrotation Xrotation Yrotation
                          End Site
                          {
                            OFFSET 0 0 0
                          }
                        }
                      }
                    }
                  }
                }
              }
            }
            JOINT Neck
            {
              OFFSET 5.0226 -0.0266342 0
              CHANNELS 6 Xposition Yposition Zposition Zrotation Xrotation Yrotation
              JOINT Head
              {
                OFFSET 6.69364 2.86102e-005 0
                CHANNELS 6 Xposition Yposition Zposition Zrotation Xrotation Yrotation
                End Site
                {
                  OFFSET 0 0 0
                }
              }
            }
          }
        }
      }
    }
  }
}
MOTION
Frames:	4
Frame Time:	0.0333333
30.4477 88.0432 -38.4645 -62.0164 -62.9064 -75.914 8.64259 1.95398 -2.38835 177.338 32.5129 75.6423 43.7702 7.03335e-006 0 -31.4724 7.73343 7.3822 40.6238 1.43051e-006 9.53674e-007 68.8117 0.984539 0.600592 12.7242 2.38419e-006 9.53674e-007 28.7808 1.77856e-006 -5.67807e-007 -8.2249 1.95398 -2.59336 179.838 11.3157 91.3046 43.5653 7.27177e-006 3.55271e-015 -40.9526 -8.16408 -0.719767 40.6238 2.38419e-006 9.53674e-007 24.9843 22.8478 27.3892 12.7242 -4.76837e-007 -7.10543e-015 28.7808 1.29624e-005 1.86858e-005 0.165834 0.87714 6.61349 1.31914 9.45209 -89.3259 7.38963 1.71661e-005 -9.72809e-008 7.91952 2.74364 2.04908 11.9445 1.14441e-005 6.65395e-008 -3.74996 2.8312 1.92609 14.7254 4.19617e-005 8.195e-008 -26.2861 2.00087 2.78026 10.9679 -9.53674e-006 5.82672e-008 -6.27348 2.00086 2.78025 2.46616 -1.6653 3.69651 92.4637 -33.6913 -100.757 13.0012 7.10543e-015 0 48.0639 -3.19134 3.25155 28.7848 1.52588e-005 -1.19209e-007 -1.37535 1.68369 -48.8566 26.5688 1.52588e-005 4.76837e-007 27.23 0.433052 -3.24329 8.03675 -0.886582 0.727868 -89.4039 88.9709 89.0936 2.78833 2.38419e-007 -7.10543e-015 -0.0604882 1.11572e-005 2.27095e-005 2.41155 3.55272e-015 7.10543e-015 -0.0639212 -1.71838e-005 9.72007e-007 7.97966 -0.886765 -1.00486 -89.3944 88.981 89.0841 2.86368 0 -7.10543e-015 -1.15742 3.63794e-006 1.05767e-006 2.11079 3.55272e-015 7.10543e-015 2.576 -1.04753e-005 6.11925e-009 8.03707 -0.887528 -2.60696 -88.8572 89.3579 88.547 1.84627 3.55271e-015 -7.10543e-015 -1.14578 -4.59102e-006 7.37135e-005 1.88434 0 0 1.14577 1.04521e-005 8.26876e-008 7.92262 -0.885498 2.31175 -89.4226 88.9487 89.1123 2.63761 4.76837e-007 0 0.409284 8.00829e-006 0.000544801 2.16656 -2.38419e-007 0 -0.636601 -1.38935e-005 -3.88645e-008 3.4769 0.0597992 2.88789 104.364 40.5023 -88.8246 2.77686 9.72748e-005 -1.52588e-005 -7.66902 0.18618 -1.35044 2.42058 -9.15528e-005 -1.42109e-014 -11.2634 -4.2876e-006 6.74198e-005 2.38034 -1.29275 -3.7523 -99.9035 -44.3769 61.9673 16.3182 6.10351e-005 1.19209e-007 -37.7573 0.5211 3.456 27.0901 -1.77636e-015 0 -0.831073 -2.84622 -56.2921 24.5451 1.52588e-005 -1.06581e-014 -7.4233 -1.15578 19.5227 9.21802 0.665817 0.545532 -91.1871 -87.8289 -89.9986 2.66255 0 -3.55271e-015 3.40888 -9.70938e-006 0.00315956 2.2804 0 7.10543e-015 -0.954859 3.12278e-006 3.72969e-008 9.24775 0.665192 -1.1267 -91.1878 -89.4015 -89.9993 2.47041 -4.76837e-007 -1.52588e-005 2.85637 9.73466e-006 0.00258195 2.2054 7.10543e-015 0 -3.16844 -2.02713e-007 -3.71876e-007 9.35384 0.66301 -2.72332 88.8084 -89.717 89.9969 1.63407 -4.76837e-007 3.55271e-015 2.54481 3.60094e-006 0.00297207 1.71176 0 0 -2.54482 -8.23608e-006 7.72196e-007 8.73161 0.675903 2.06801 -91.1882 -86.1973 -89.9997 2.66689 -9.53674e-007 1.77636e-015 6.13104 -9.19937e-006 0.00653458 2.12946 1.04308e-007 1.52588e-005 -2.04542 -6.58188e-006 -2.09562e-007 4.96735 -0.62265 3.39586 -101.949 -40.7242 -90.0694 2.15386 1.52588e-005 -1.77636e-015 10.0172 -1.16226e-005 1.48926e-006 2.19511 -3.43323e-005 1.52588e-005 -2.66976 1.32727e-005 -1.97279e-006 5.0226 -0.0266342 -9.09495e-013 36.1034 17.8305 1.71724 6.69364 2.86102e-005 -1.09447e-007 -23.2255 12.0909 22.3601 
29.7133 88.1986 -37.927 -63.7948 -63.3032 -77.2832 8.64259 1.95398 -2.38835 177.498 30.5999 75.8486 43.7702 7.03335e-006 0 -31.0155 8.54654 7.82223 40.6238 1.43051e-006 9.53674e-007 69.6013 0.509977 0.371948 12.7242 2.38419e-006 9.53674e-007 28.7808 1.77856e-006 -5.67807e-007 -8.2249 1.95398 -2.59336 179.762 12.6327 91.0211 43.5653 7.27177e-006 0 -44.3321 -8.36913 -0.778097 40.6238 2.38419e-006 9.53674e-007 20.9106 23.2857 29.8905 12.7242 -4.76837e-007 0 28.7808 1.29624e-005 1.86858e-005 0.165834 0.87714 6.61349 1.25375 9.29442 -89.2456 7.38963 1.71661e-005 -9.72809e-008 8.24027 2.67603 2.03586 11.9445 1.14441e-005 6.65395e-008 -3.42933 2.76305 1.91632 14.7254 4.19617e-005 8.195e-008 -25.9648 1.94041 2.74604 10.9679 -9.53674e-006 5.82672e-008 -5.95215 1.94041 2.74605 2.46616 -1.6653 3.69651 92.6055 -34.5094 -100.264 13.0012 0 1.42109e-014 47.7744 -2.46428 4.77988 28.7848 1.52588e-005 -1.19209e-007 -2.30983 0.777888 -49.1967 26.5688 1.52588e-005 4.76837e-007 28.865 0.316569 -3.78454 8.03675 -0.886582 0.727868 -89.4039 88.9709 89.0936 2.78833 2.38419e-007 0 -0.0604882 1.11572e-005 2.27095e-005 2.41155 0 0 -0.0639212 -1.71838e-005 9.72007e-007 7.97966 -0.886765 -1.00486 -89.3944 88.981 89.0841 2.86368 0 -7.10543e-015 -1.15742 3.63794e-006 1.05767e-006 2.11079 0 7.10543e-015 2.576 -1.04753e-005 6.11925e-009 8.03707 -0.887528 -2.60696 -88.8572 89.3579 88.547 1.84627 7.10543e-015 0 -1.14578 -4.59102e-006 7.37135e-005 1.88434 0 0 1.14577 1.04521e-005 8.26876e-008 7.92262 -0.885498 2.31175 -89.4226 88.9487 89.1123 2.63761 4.76837e-007 7.10543e-015 0.409284 8.00829e-006 0.000544801 2.16656 -2.38419e-007 0 -0.636601 -1.38935e-005 -3.88645e-008 3.4769 0.0597992 2.88789 104.364 40.5023 -88.8246 2.77686 9.72748e-005 -1.52588e-005 -7.66902 0.18618 -1.35044 2.42058 -9.15528e-005 -1.42109e-014 -11.2634 -4.2876e-006 6.74198e-005 2.38034 -1.29275 -3.7523 -98.8589 -43.6424 63.2786 16.3182 6.10351e-005 1.19209e-007 -38.3796 0.632835 5.17204 27.0901 -3.55271e-015 1.42109e-014 2.14082 -0.696824 -56.4346 24.5451 1.52588e-005 7.10543e-015 -7.77323 -1.16675 18.1048 9.21802 0.665817 0.545532 -91.1871 -87.8289 -89.9986 2.66255 0 0 3.40888 -9.70938e-006 0.00315956 2.2804 -7.10543e-015 3.55271e-015 -0.954859 3.12278e-006 3.72969e-008 9.24775 0.665192 -1.1267 -91.1878 -89.4015 -89.9993 2.47041 -4.76837e-007 -1.52588e-005 2.85637 9.73466e-006 0.00258195 2.2054 0 -7.10543e-015 -3.16844 -2.02713e-007 -3.71876e-007 9.35384 0.66301 -2.72332 88.8084 -89.717 89.9969 1.63407 -4.76837e-007 0 2.54481 3.60094e-006 0.00297207 1.71176 0 0 -2.54482 -8.23608e-006 7.72196e-007 8.73161 0.675903 2.06801 -91.1882 -86.1973 -89.9997 2.66689 -9.53674e-007 0 6.13104 -9.19937e-006 0.00653458 2.12946 1.04308e-007 1.52588e-005 -2.04542 -6.58188e-006 -2.09562e-007 4.96735 -0.62265 3.39586 -101.949 -40.7242 -90.0694 2.15386 1.52588e-005 1.77636e-015 10.0172 -1.16226e-005 1.48926e-006 2.19511 -3.43323e-005 1.52588e-005 -2.66976 1.32727e-005 -1.97279e-006 5.0226 -0.0266342 -9.20153e-013 37.73 17.4275 -1.05962 6.69364 2.86102e-005 -1.09447e-007 -25.4806 12.2995 23.3336 
28.9035 88.2804 -37.4599 -65.8328 -63.9025 -79.0066 8.64259 1.95398 -2.38835 177.708 28.8359 76.0634 43.7702 7.03335e-006 -5.32907e-015 -31.0074 9.50547 8.08846 40.6238 1.43051e-006 9.53674e-007 70.3156 -0.0452494 0.11061 12.7242 2.38419e-006 9.53674e-007 28.7808 1.77856e-006 -5.67807e-007 -8.2249 1.95398 -2.59336 179.709 14.5315 90.6178 43.5653 7.27177e-006 7.10543e-015 -49.9481 -4.58653 -0.647504 40.6238 2.38419e-006 9.53674e-007 25.7127 24.2438 28.5656 12.7242 -4.76837e-007 -3.55271e-015 28.7808 1.29624e-005 1.86858e-005 0.165834 0.87714 6.61349 1.18895 9.15824 -89.2061 7.38963 1.71661e-005 -9.72809e-008 8.51632 2.5774 2.03019 11.9445 1.14441e-005 6.65395e-008 -3.1535 2.66396 1.91513 14.7254 4.19617e-005 8.195e-008 -25.6879 1.85254 2.70726 10.9679 -9.53674e-006 5.82672e-008 -5.67523 1.85253 2.70722 2.46616 -1.6653 3.69651 92.6996 -35.0906 -99.9344 13.0012 0 0 47.5491 -1.82836 6.32947 28.7848 1.52588e-005 -1.19209e-007 -2.9708 0.148358 -49.634 26.5688 1.52588e-005 4.76837e-007 28.9852 0.240693 -4.07413 8.03675 -0.886582 0.727868 -89.4039 88.9709 89.0936 2.78833 2.38419e-007 -7.10543e-015 -0.0604882 1.11572e-005 2.27095e-005 2.41155 -7.10543e-015 7.10543e-015 -0.0639212 -1.71838e-005 9.72007e-007 7.97966 -0.886765 -1.00486 -89.3944 88.981 89.0841 2.86368 -3.55272e-015 7.10543e-015 -1.15742 3.63794e-006 1.05767e-006 2.11079 -3.55272e-015 0 2.576 -1.04753e-005 6.11925e-009 8.03707 -0.887528 -2.60696 -88.8572 89.3579 88.547 1.84627 -7.10543e-015 0 -1.14578 -4.59102e-006 7.37135e-005 1.88434 3.55271e-015 7.10543e-015 1.14577 1.04521e-005 8.26876e-008 7.92262 -0.885498 2.31175 -89.4226 88.9487 89.1123 2.63761 4.76837e-007 -7.10543e-015 0.409284 8.00829e-006 0.000544801 2.16656 -2.38419e-007 7.10543e-015 -0.636601 -1.38935e-005 -3.88645e-008 3.4769 0.0597992 2.88789 104.364 40.5023 -88.8246 2.77686 9.72748e-005 -1.52588e-005 -7.66902 0.18618 -1.35044 2.42058 -9.15528e-005 0 -11.2634 -4.2876e-006 6.74198e-005 2.38034 -1.29275 -3.7523 -97.764 -42.7676 64.6356 16.3182 6.10351e-005 1.19209e-007 -39.1908 1.0363 6.49818 27.0901 -5.32907e-015 1.42109e-014 4.25351 0.806315 -56.743 24.5451 1.52588e-005 -7.10543e-015 -7.1878 -1.0336 17.7629 9.21802 0.665817 0.545532 -91.1871 -87.8289 -89.9986 2.66255 7.10543e-015 3.55271e-015 3.40888 -9.70938e-006 0.00315956 2.2804 7.10543e-015 0 -0.954859 3.12278e-006 3.72969e-008 9.24775 0.665192 -1.1267 -91.1878 -89.4015 -89.9993 2.47041 -4.76837e-007 -1.52588e-005 2.85637 9.73466e-006 0.00258195 2.2054 7.10543e-015 0 -3.16844 -2.02713e-007 -3.71876e-007 9.35384 0.66301 -2.72332 88.8084 -89.717 89.9969 1.63407 -4.76837e-007 0 2.54481 3.60094e-006 0.00297207 1.71176 0 -7.10543e-015 -2.54482 -8.23608e-006 7.72196e-007 8.73161 0.675903 2.06801 -91.1882 -86.1973 -89.9997 2.66689 -9.53674e-007 0 6.13104 -9.19937e-006 0.00653458 2.12946 1.04308e-007 1.52588e-005 -2.04542 -6.58188e-006 -2.09562e-007 4.96735 -0.62265 3.39586 -101.949 -40.7242 -90.0694 2.15386 1.52588e-005 5.32907e-015 10.0172 -1.16226e-005 1.48926e-006 2.19511 -3.43323e-005 1.52588e-005 -2.66976 1.32727e-005 -1.97279e-006 5.0226 -0.0266342 -9.09495e-013 39.3173 16.9148 -3.78601 6.69364 2.86102e-005 -1.09447e-007 -28.2535 12.2895 24.5082 
28.0655 88.2569 -37.0828 -68.189 -64.8318 -81.1117 8.64259 1.95398 -2.38835 177.871 27.2298 76.1202 43.7702 7.03335e-006 -1.77636e-015 -31.5709 10.6159 8.5315 40.6238 1.43051e-006 9.53674e-007 71.0161 -0.450598 -0.07097 12.7242 2.38419e-006 9.53674e-007 28.7808 1.77856e-006 -5.67807e-007 -8.2249 1.95398 -2.59336 179.712 17.2751 89.2708 43.5653 7.27177e-006 -3.55271e-015 -57.0649 -5.12639 -0.79823 40.6238 2.38419e-006 9.53674e-007 32.25 25.5391 26.6685 12.7242 -4.76837e-007 -3.55271e-015 28.7808 1.29624e-005 1.86858e-005 0.165834 0.87714 6.61349 1.15602 9.03954 -89.2434 7.38963 1.71661e-005 -9.72809e-008 8.76111 2.51092 1.79841 11.9445 1.14441e-005 6.65395e-008 -2.90852 2.5876 1.68615 14.7254 4.19617e-005 8.195e-008 -25.4456 1.85467 2.4698 10.9679 -9.53674e-006 5.82672e-008 -5.43293 1.85466 2.46981 2.46616 -1.6653 3.69651 93.103 -34.4084 -99.3553 13.0012 0 1.42109e-014 47.4925 -1.39532 8.65159 28.7848 1.52588e-005 -1.19209e-007 -2.57681 0.475869 -51.1434 26.5688 1.52588e-005 4.76837e-007 29.6752 0.394453 -3.53045 8.03675 -0.886582 0.727868 -89.4039 88.9709 89.0936 2.78833 2.38419e-007 7.10543e-015 -0.0604882 1.11572e-005 2.27095e-005 2.41155 -3.55272e-015 0 -0.0639212 -1.71838e-005 9.72007e-007 7.97966 -0.886765 -1.00486 -89.3944 88.981 89.0841 2.86368 0 7.10543e-015 -1.15742 3.63794e-006 1.05767e-006 2.11079 -7.10543e-015 0 2.576 -1.04753e-005 6.11925e-009 8.03707 -0.887528 -2.60696 -88.8572 89.3579 88.547 1.84627 7.10543e-015 0 -1.14578 -4.59102e-006 7.37135e-005 1.88434 3.55271e-015 -7.10543e-015 1.14577 1.04521e-005 8.26876e-008 7.92262 -0.885498 2.31175 -89.4226 88.9487 89.1123 2.63761 4.76837e-007 7.10543e-015 0.409284 8.00829e-006 0.000544801 2.16656 -2.38419e-007 0 -0.636601 -1.38935e-005 -3.88645e-008 3.4769 0.0597992 2.88789 104.364 40.5023 -88.8246 2.77686 9.72748e-005 -1.52588e-005 -7.66902 0.18618 -1.35044 2.42058 -9.15528e-005 0 -11.2634 -4.2876e-006 6.74198e-005 2.38034 -1.29275 -3.7523 -97.4078 -42.8806 65.2394 16.3182 6.10351e-005 1.19209e-007 -39.4623 1.03378 7.90834 27.0901 0 -1.42109e-014 6.67986 2.44976 -57.4875 24.5451 1.52588e-005 0 -8.70796 -1.31717 17.5163 9.21802 0.665817 0.545532 -91.1871 -87.8289 -89.9986 2.66255 7.10543e-015 3.55271e-015 3.40888 -9.70938e-006 0.00315956 2.2804 0 0 -0.954859 3.12278e-006 3.72969e-008 9.24775 0.665192 -1.1267 -91.1878 -89.4015 -89.9993 2.47041 -4.76837e-007 -1.52588e-005 2.85637 9.73466e-006 0.00258195 2.2054 0 0 -3.16844 -2.02713e-007 -3.71876e-007 9.35384 0.66301 -2.72332 88.8084 -89.717 89.9969 1.63407 -4.76837e-007 0 2.54481 3.60094e-006 0.00297207 1.71176 0 -3.55271e-015 -2.54482 -8.23608e-006 7.72196e-007 8.73161 0.675903 2.06801 -91.1882 -86.1973 -89.9997 2.66689 -9.53674e-007 -3.55271e-015 6.13104 -9.19937e-006 0.00653458 2.12946 1.04308e-007 1.52588e-005 -2.04542 -6.58188e-006 -2.09562e-007 4.96735 -0.62265 3.39586 -101.949 -40.7242 -90.0694 2.15386 1.52588e-005 0 10.0172 -1.16226e-005 1.48926e-006 2.19511 -3.43323e-005 1.52588e-005 -2.66976 1.32727e-005 -1.97279e-006 5.0226 -0.0266342 -9.13047e-013 39.0076 17.0276 -3.35746 6.69364 2.86102e-005 -1.09447e-007 -28.9899 12.2207 23.6679 
